<mxfile host="app.diagrams.net" modified="2024-11-06T11:21:07.315Z" agent="Mozilla/5.0 (Windows NT 10.0; Win64; x64) AppleWebKit/537.36 (KHTML, like Gecko) Chrome/130.0.0.0 Safari/537.36" etag="CKN4oippHHGG4iusYtYP" version="24.3.0" type="device">
  <diagram name="Page-1" id="EL7f8JfyVPVTLI1xjsHI">
    <mxGraphModel dx="1404" dy="587" grid="0" gridSize="10" guides="1" tooltips="1" connect="1" arrows="1" fold="1" page="0" pageScale="1" pageWidth="850" pageHeight="1100" math="0" shadow="0">
      <root>
        <mxCell id="0" />
        <mxCell id="1" parent="0" />
        <mxCell id="6fU0iMmO_q3U7_9HJFzY-7" value="&lt;font style=&quot;font-size: 14px;&quot;&gt;&lt;b&gt;id&lt;/b&gt;&lt;/font&gt;" style="ellipse;whiteSpace=wrap;html=1;align=center;fontStyle=4;" vertex="1" parent="1">
          <mxGeometry x="383" y="321" width="100" height="40" as="geometry" />
        </mxCell>
        <mxCell id="6fU0iMmO_q3U7_9HJFzY-8" value="full_name" style="ellipse;whiteSpace=wrap;html=1;align=center;" vertex="1" parent="1">
          <mxGeometry x="270" y="276" width="100" height="40" as="geometry" />
        </mxCell>
        <mxCell id="6fU0iMmO_q3U7_9HJFzY-9" value="user_name" style="ellipse;whiteSpace=wrap;html=1;align=center;" vertex="1" parent="1">
          <mxGeometry x="93" y="598" width="100" height="40" as="geometry" />
        </mxCell>
        <mxCell id="6fU0iMmO_q3U7_9HJFzY-10" value="email" style="ellipse;whiteSpace=wrap;html=1;align=center;" vertex="1" parent="1">
          <mxGeometry x="415" y="558" width="100" height="40" as="geometry" />
        </mxCell>
        <mxCell id="6fU0iMmO_q3U7_9HJFzY-11" value="password" style="ellipse;whiteSpace=wrap;html=1;align=center;" vertex="1" parent="1">
          <mxGeometry x="87" y="462" width="100" height="40" as="geometry" />
        </mxCell>
        <mxCell id="6fU0iMmO_q3U7_9HJFzY-12" value="phone" style="ellipse;whiteSpace=wrap;html=1;align=center;" vertex="1" parent="1">
          <mxGeometry x="208" y="616" width="100" height="40" as="geometry" />
        </mxCell>
        <mxCell id="6fU0iMmO_q3U7_9HJFzY-13" value="street" style="ellipse;whiteSpace=wrap;html=1;align=center;" vertex="1" parent="1">
          <mxGeometry x="90" y="524" width="100" height="40" as="geometry" />
        </mxCell>
        <mxCell id="6fU0iMmO_q3U7_9HJFzY-14" value="city" style="ellipse;whiteSpace=wrap;html=1;align=center;" vertex="1" parent="1">
          <mxGeometry x="337" y="616" width="100" height="40" as="geometry" />
        </mxCell>
        <mxCell id="6fU0iMmO_q3U7_9HJFzY-15" value="state" style="ellipse;whiteSpace=wrap;html=1;align=center;" vertex="1" parent="1">
          <mxGeometry x="87" y="401" width="100" height="40" as="geometry" />
        </mxCell>
        <mxCell id="6fU0iMmO_q3U7_9HJFzY-16" value="zip" style="ellipse;whiteSpace=wrap;html=1;align=center;" vertex="1" parent="1">
          <mxGeometry x="90" y="340" width="100" height="40" as="geometry" />
        </mxCell>
        <mxCell id="6fU0iMmO_q3U7_9HJFzY-17" value="created_at" style="ellipse;whiteSpace=wrap;html=1;align=center;" vertex="1" parent="1">
          <mxGeometry x="139" y="288" width="100" height="40" as="geometry" />
        </mxCell>
        <mxCell id="6fU0iMmO_q3U7_9HJFzY-18" value="users" style="whiteSpace=wrap;html=1;align=center;" vertex="1" parent="1">
          <mxGeometry x="295" y="438" width="100" height="40" as="geometry" />
        </mxCell>
        <mxCell id="6fU0iMmO_q3U7_9HJFzY-21" value="" style="endArrow=none;html=1;rounded=0;" edge="1" parent="1" source="6fU0iMmO_q3U7_9HJFzY-11" target="6fU0iMmO_q3U7_9HJFzY-18">
          <mxGeometry relative="1" as="geometry">
            <mxPoint x="114" y="486" as="sourcePoint" />
            <mxPoint x="274" y="486" as="targetPoint" />
          </mxGeometry>
        </mxCell>
        <mxCell id="6fU0iMmO_q3U7_9HJFzY-22" value="" style="endArrow=none;html=1;rounded=0;" edge="1" parent="1" source="6fU0iMmO_q3U7_9HJFzY-13" target="6fU0iMmO_q3U7_9HJFzY-18">
          <mxGeometry relative="1" as="geometry">
            <mxPoint x="114" y="486" as="sourcePoint" />
            <mxPoint x="274" y="486" as="targetPoint" />
          </mxGeometry>
        </mxCell>
        <mxCell id="6fU0iMmO_q3U7_9HJFzY-23" value="" style="endArrow=none;html=1;rounded=0;" edge="1" parent="1" source="6fU0iMmO_q3U7_9HJFzY-15" target="6fU0iMmO_q3U7_9HJFzY-18">
          <mxGeometry relative="1" as="geometry">
            <mxPoint x="114" y="486" as="sourcePoint" />
            <mxPoint x="274" y="486" as="targetPoint" />
          </mxGeometry>
        </mxCell>
        <mxCell id="6fU0iMmO_q3U7_9HJFzY-24" value="" style="endArrow=none;html=1;rounded=0;" edge="1" parent="1" source="6fU0iMmO_q3U7_9HJFzY-16" target="6fU0iMmO_q3U7_9HJFzY-18">
          <mxGeometry relative="1" as="geometry">
            <mxPoint x="124" y="496" as="sourcePoint" />
            <mxPoint x="284" y="496" as="targetPoint" />
          </mxGeometry>
        </mxCell>
        <mxCell id="6fU0iMmO_q3U7_9HJFzY-25" value="" style="endArrow=none;html=1;rounded=0;" edge="1" parent="1" source="6fU0iMmO_q3U7_9HJFzY-17" target="6fU0iMmO_q3U7_9HJFzY-18">
          <mxGeometry relative="1" as="geometry">
            <mxPoint x="134" y="506" as="sourcePoint" />
            <mxPoint x="294" y="506" as="targetPoint" />
          </mxGeometry>
        </mxCell>
        <mxCell id="6fU0iMmO_q3U7_9HJFzY-26" value="" style="endArrow=none;html=1;rounded=0;" edge="1" parent="1" source="6fU0iMmO_q3U7_9HJFzY-9" target="6fU0iMmO_q3U7_9HJFzY-18">
          <mxGeometry relative="1" as="geometry">
            <mxPoint x="144" y="516" as="sourcePoint" />
            <mxPoint x="304" y="516" as="targetPoint" />
          </mxGeometry>
        </mxCell>
        <mxCell id="6fU0iMmO_q3U7_9HJFzY-27" value="" style="endArrow=none;html=1;rounded=0;" edge="1" parent="1" source="6fU0iMmO_q3U7_9HJFzY-12" target="6fU0iMmO_q3U7_9HJFzY-18">
          <mxGeometry relative="1" as="geometry">
            <mxPoint x="154" y="526" as="sourcePoint" />
            <mxPoint x="314" y="526" as="targetPoint" />
          </mxGeometry>
        </mxCell>
        <mxCell id="6fU0iMmO_q3U7_9HJFzY-28" value="" style="endArrow=none;html=1;rounded=0;" edge="1" parent="1" source="6fU0iMmO_q3U7_9HJFzY-14" target="6fU0iMmO_q3U7_9HJFzY-18">
          <mxGeometry relative="1" as="geometry">
            <mxPoint x="164" y="536" as="sourcePoint" />
            <mxPoint x="324" y="536" as="targetPoint" />
          </mxGeometry>
        </mxCell>
        <mxCell id="6fU0iMmO_q3U7_9HJFzY-29" value="" style="endArrow=none;html=1;rounded=0;" edge="1" parent="1" source="6fU0iMmO_q3U7_9HJFzY-18" target="6fU0iMmO_q3U7_9HJFzY-8">
          <mxGeometry relative="1" as="geometry">
            <mxPoint x="174" y="546" as="sourcePoint" />
            <mxPoint x="334" y="546" as="targetPoint" />
          </mxGeometry>
        </mxCell>
        <mxCell id="6fU0iMmO_q3U7_9HJFzY-30" value="" style="endArrow=none;html=1;rounded=0;" edge="1" parent="1" source="6fU0iMmO_q3U7_9HJFzY-7" target="6fU0iMmO_q3U7_9HJFzY-18">
          <mxGeometry relative="1" as="geometry">
            <mxPoint x="184" y="556" as="sourcePoint" />
            <mxPoint x="344" y="556" as="targetPoint" />
          </mxGeometry>
        </mxCell>
        <mxCell id="6fU0iMmO_q3U7_9HJFzY-31" value="" style="endArrow=none;html=1;rounded=0;" edge="1" parent="1" source="6fU0iMmO_q3U7_9HJFzY-18" target="6fU0iMmO_q3U7_9HJFzY-10">
          <mxGeometry relative="1" as="geometry">
            <mxPoint x="194" y="566" as="sourcePoint" />
            <mxPoint x="354" y="566" as="targetPoint" />
          </mxGeometry>
        </mxCell>
        <mxCell id="6fU0iMmO_q3U7_9HJFzY-33" value="parcels" style="whiteSpace=wrap;html=1;align=center;" vertex="1" parent="1">
          <mxGeometry x="1013" y="435" width="100" height="40" as="geometry" />
        </mxCell>
        <mxCell id="6fU0iMmO_q3U7_9HJFzY-34" value="&lt;span style=&quot;border-bottom: 1px dotted&quot;&gt;&lt;font style=&quot;font-size: 14px;&quot;&gt;&lt;b&gt;user_id&lt;/b&gt;&lt;/font&gt;&lt;/span&gt;" style="ellipse;whiteSpace=wrap;html=1;align=center;" vertex="1" parent="1">
          <mxGeometry x="1004" y="220" width="100" height="40" as="geometry" />
        </mxCell>
        <mxCell id="6fU0iMmO_q3U7_9HJFzY-35" value="&lt;font style=&quot;font-size: 14px;&quot;&gt;&lt;b&gt;id&lt;/b&gt;&lt;/font&gt;" style="ellipse;whiteSpace=wrap;html=1;align=center;fontStyle=4;" vertex="1" parent="1">
          <mxGeometry x="884" y="241" width="100" height="40" as="geometry" />
        </mxCell>
        <mxCell id="6fU0iMmO_q3U7_9HJFzY-36" value="tracking_number" style="ellipse;whiteSpace=wrap;html=1;align=center;" vertex="1" parent="1">
          <mxGeometry x="1116" y="214" width="123" height="40" as="geometry" />
        </mxCell>
        <mxCell id="6fU0iMmO_q3U7_9HJFzY-37" value="sender_name" style="ellipse;whiteSpace=wrap;html=1;align=center;" vertex="1" parent="1">
          <mxGeometry x="1254" y="227" width="100" height="40" as="geometry" />
        </mxCell>
        <mxCell id="6fU0iMmO_q3U7_9HJFzY-38" value="sender_street" style="ellipse;whiteSpace=wrap;html=1;align=center;" vertex="1" parent="1">
          <mxGeometry x="1308" y="268" width="100" height="40" as="geometry" />
        </mxCell>
        <mxCell id="6fU0iMmO_q3U7_9HJFzY-39" value="sender_city" style="ellipse;whiteSpace=wrap;html=1;align=center;" vertex="1" parent="1">
          <mxGeometry x="1318" y="312" width="100" height="40" as="geometry" />
        </mxCell>
        <mxCell id="6fU0iMmO_q3U7_9HJFzY-40" value="sender_state" style="ellipse;whiteSpace=wrap;html=1;align=center;" vertex="1" parent="1">
          <mxGeometry x="1329" y="360" width="100" height="40" as="geometry" />
        </mxCell>
        <mxCell id="6fU0iMmO_q3U7_9HJFzY-41" value="sender_zip" style="ellipse;whiteSpace=wrap;html=1;align=center;" vertex="1" parent="1">
          <mxGeometry x="1335" y="409" width="100" height="40" as="geometry" />
        </mxCell>
        <mxCell id="6fU0iMmO_q3U7_9HJFzY-42" value="sender_phone" style="ellipse;whiteSpace=wrap;html=1;align=center;" vertex="1" parent="1">
          <mxGeometry x="1338" y="457" width="100" height="40" as="geometry" />
        </mxCell>
        <mxCell id="6fU0iMmO_q3U7_9HJFzY-43" value="receiver_name" style="ellipse;whiteSpace=wrap;html=1;align=center;" vertex="1" parent="1">
          <mxGeometry x="1338" y="508" width="100" height="40" as="geometry" />
        </mxCell>
        <mxCell id="6fU0iMmO_q3U7_9HJFzY-44" value="receiver_street" style="ellipse;whiteSpace=wrap;html=1;align=center;" vertex="1" parent="1">
          <mxGeometry x="1335" y="559" width="100" height="40" as="geometry" />
        </mxCell>
        <mxCell id="6fU0iMmO_q3U7_9HJFzY-45" value="receiver_city" style="ellipse;whiteSpace=wrap;html=1;align=center;" vertex="1" parent="1">
          <mxGeometry x="1302" y="617" width="100" height="40" as="geometry" />
        </mxCell>
        <mxCell id="6fU0iMmO_q3U7_9HJFzY-46" value="receiver_state" style="ellipse;whiteSpace=wrap;html=1;align=center;" vertex="1" parent="1">
          <mxGeometry x="1274" y="664" width="100" height="40" as="geometry" />
        </mxCell>
        <mxCell id="6fU0iMmO_q3U7_9HJFzY-48" value="receiver_zip" style="ellipse;whiteSpace=wrap;html=1;align=center;" vertex="1" parent="1">
          <mxGeometry x="1218" y="715" width="100" height="40" as="geometry" />
        </mxCell>
        <mxCell id="6fU0iMmO_q3U7_9HJFzY-49" value="receiver_phone" style="ellipse;whiteSpace=wrap;html=1;align=center;" vertex="1" parent="1">
          <mxGeometry x="1132" y="749" width="100" height="40" as="geometry" />
        </mxCell>
        <mxCell id="6fU0iMmO_q3U7_9HJFzY-50" value="parcel_weight" style="ellipse;whiteSpace=wrap;html=1;align=center;" vertex="1" parent="1">
          <mxGeometry x="1019" y="755" width="100" height="40" as="geometry" />
        </mxCell>
        <mxCell id="6fU0iMmO_q3U7_9HJFzY-51" value="delivery_type" style="ellipse;whiteSpace=wrap;html=1;align=center;" vertex="1" parent="1">
          <mxGeometry x="898" y="737" width="100" height="40" as="geometry" />
        </mxCell>
        <mxCell id="6fU0iMmO_q3U7_9HJFzY-52" value="status" style="ellipse;whiteSpace=wrap;html=1;align=center;" vertex="1" parent="1">
          <mxGeometry x="794" y="632" width="100" height="40" as="geometry" />
        </mxCell>
        <mxCell id="6fU0iMmO_q3U7_9HJFzY-54" value="created_at" style="ellipse;whiteSpace=wrap;html=1;align=center;" vertex="1" parent="1">
          <mxGeometry x="771" y="572" width="100" height="40" as="geometry" />
        </mxCell>
        <mxCell id="6fU0iMmO_q3U7_9HJFzY-55" value="cost" style="ellipse;whiteSpace=wrap;html=1;align=center;" vertex="1" parent="1">
          <mxGeometry x="825" y="692" width="100" height="40" as="geometry" />
        </mxCell>
        <mxCell id="6fU0iMmO_q3U7_9HJFzY-59" value="" style="endArrow=none;html=1;rounded=0;" edge="1" parent="1" source="6fU0iMmO_q3U7_9HJFzY-33" target="6fU0iMmO_q3U7_9HJFzY-34">
          <mxGeometry relative="1" as="geometry">
            <mxPoint x="1247" y="610" as="sourcePoint" />
            <mxPoint x="1407" y="610" as="targetPoint" />
          </mxGeometry>
        </mxCell>
        <mxCell id="6fU0iMmO_q3U7_9HJFzY-66" value="" style="endArrow=none;html=1;rounded=0;" edge="1" parent="1" source="6fU0iMmO_q3U7_9HJFzY-33" target="6fU0iMmO_q3U7_9HJFzY-54">
          <mxGeometry relative="1" as="geometry">
            <mxPoint x="1029" y="616" as="sourcePoint" />
            <mxPoint x="1189" y="616" as="targetPoint" />
          </mxGeometry>
        </mxCell>
        <mxCell id="6fU0iMmO_q3U7_9HJFzY-67" value="" style="endArrow=none;html=1;rounded=0;" edge="1" parent="1" source="6fU0iMmO_q3U7_9HJFzY-33" target="6fU0iMmO_q3U7_9HJFzY-52">
          <mxGeometry relative="1" as="geometry">
            <mxPoint x="1055" y="515" as="sourcePoint" />
            <mxPoint x="867" y="588" as="targetPoint" />
          </mxGeometry>
        </mxCell>
        <mxCell id="6fU0iMmO_q3U7_9HJFzY-68" value="" style="endArrow=none;html=1;rounded=0;" edge="1" parent="1" source="6fU0iMmO_q3U7_9HJFzY-33" target="6fU0iMmO_q3U7_9HJFzY-55">
          <mxGeometry relative="1" as="geometry">
            <mxPoint x="1065" y="525" as="sourcePoint" />
            <mxPoint x="877" y="598" as="targetPoint" />
          </mxGeometry>
        </mxCell>
        <mxCell id="6fU0iMmO_q3U7_9HJFzY-69" value="" style="endArrow=none;html=1;rounded=0;" edge="1" parent="1" source="6fU0iMmO_q3U7_9HJFzY-33" target="6fU0iMmO_q3U7_9HJFzY-51">
          <mxGeometry relative="1" as="geometry">
            <mxPoint x="1075" y="535" as="sourcePoint" />
            <mxPoint x="887" y="608" as="targetPoint" />
          </mxGeometry>
        </mxCell>
        <mxCell id="6fU0iMmO_q3U7_9HJFzY-70" value="" style="endArrow=none;html=1;rounded=0;" edge="1" parent="1" source="6fU0iMmO_q3U7_9HJFzY-33" target="6fU0iMmO_q3U7_9HJFzY-50">
          <mxGeometry relative="1" as="geometry">
            <mxPoint x="1085" y="545" as="sourcePoint" />
            <mxPoint x="897" y="618" as="targetPoint" />
          </mxGeometry>
        </mxCell>
        <mxCell id="6fU0iMmO_q3U7_9HJFzY-71" value="" style="endArrow=none;html=1;rounded=0;" edge="1" parent="1" source="6fU0iMmO_q3U7_9HJFzY-33" target="6fU0iMmO_q3U7_9HJFzY-49">
          <mxGeometry relative="1" as="geometry">
            <mxPoint x="1095" y="555" as="sourcePoint" />
            <mxPoint x="907" y="628" as="targetPoint" />
          </mxGeometry>
        </mxCell>
        <mxCell id="6fU0iMmO_q3U7_9HJFzY-72" value="" style="endArrow=none;html=1;rounded=0;" edge="1" parent="1" source="6fU0iMmO_q3U7_9HJFzY-33" target="6fU0iMmO_q3U7_9HJFzY-48">
          <mxGeometry relative="1" as="geometry">
            <mxPoint x="1105" y="565" as="sourcePoint" />
            <mxPoint x="917" y="638" as="targetPoint" />
          </mxGeometry>
        </mxCell>
        <mxCell id="6fU0iMmO_q3U7_9HJFzY-73" value="" style="endArrow=none;html=1;rounded=0;" edge="1" parent="1" source="6fU0iMmO_q3U7_9HJFzY-33" target="6fU0iMmO_q3U7_9HJFzY-46">
          <mxGeometry relative="1" as="geometry">
            <mxPoint x="1115" y="575" as="sourcePoint" />
            <mxPoint x="927" y="648" as="targetPoint" />
          </mxGeometry>
        </mxCell>
        <mxCell id="6fU0iMmO_q3U7_9HJFzY-74" value="" style="endArrow=none;html=1;rounded=0;" edge="1" parent="1" source="6fU0iMmO_q3U7_9HJFzY-33" target="6fU0iMmO_q3U7_9HJFzY-45">
          <mxGeometry relative="1" as="geometry">
            <mxPoint x="1125" y="585" as="sourcePoint" />
            <mxPoint x="937" y="658" as="targetPoint" />
          </mxGeometry>
        </mxCell>
        <mxCell id="6fU0iMmO_q3U7_9HJFzY-75" value="" style="endArrow=none;html=1;rounded=0;" edge="1" parent="1" source="6fU0iMmO_q3U7_9HJFzY-33" target="6fU0iMmO_q3U7_9HJFzY-44">
          <mxGeometry relative="1" as="geometry">
            <mxPoint x="1135" y="595" as="sourcePoint" />
            <mxPoint x="947" y="668" as="targetPoint" />
          </mxGeometry>
        </mxCell>
        <mxCell id="6fU0iMmO_q3U7_9HJFzY-76" value="" style="endArrow=none;html=1;rounded=0;" edge="1" parent="1" source="6fU0iMmO_q3U7_9HJFzY-33" target="6fU0iMmO_q3U7_9HJFzY-42">
          <mxGeometry relative="1" as="geometry">
            <mxPoint x="1145" y="605" as="sourcePoint" />
            <mxPoint x="957" y="678" as="targetPoint" />
          </mxGeometry>
        </mxCell>
        <mxCell id="6fU0iMmO_q3U7_9HJFzY-77" value="" style="endArrow=none;html=1;rounded=0;" edge="1" parent="1" source="6fU0iMmO_q3U7_9HJFzY-41" target="6fU0iMmO_q3U7_9HJFzY-33">
          <mxGeometry relative="1" as="geometry">
            <mxPoint x="1155" y="615" as="sourcePoint" />
            <mxPoint x="967" y="688" as="targetPoint" />
          </mxGeometry>
        </mxCell>
        <mxCell id="6fU0iMmO_q3U7_9HJFzY-78" value="" style="endArrow=none;html=1;rounded=0;" edge="1" parent="1" source="6fU0iMmO_q3U7_9HJFzY-40" target="6fU0iMmO_q3U7_9HJFzY-33">
          <mxGeometry relative="1" as="geometry">
            <mxPoint x="1165" y="625" as="sourcePoint" />
            <mxPoint x="977" y="698" as="targetPoint" />
          </mxGeometry>
        </mxCell>
        <mxCell id="6fU0iMmO_q3U7_9HJFzY-79" value="" style="endArrow=none;html=1;rounded=0;" edge="1" parent="1" source="6fU0iMmO_q3U7_9HJFzY-39" target="6fU0iMmO_q3U7_9HJFzY-33">
          <mxGeometry relative="1" as="geometry">
            <mxPoint x="1175" y="635" as="sourcePoint" />
            <mxPoint x="987" y="708" as="targetPoint" />
          </mxGeometry>
        </mxCell>
        <mxCell id="6fU0iMmO_q3U7_9HJFzY-80" value="" style="endArrow=none;html=1;rounded=0;" edge="1" parent="1" source="6fU0iMmO_q3U7_9HJFzY-38" target="6fU0iMmO_q3U7_9HJFzY-33">
          <mxGeometry relative="1" as="geometry">
            <mxPoint x="1185" y="645" as="sourcePoint" />
            <mxPoint x="997" y="718" as="targetPoint" />
          </mxGeometry>
        </mxCell>
        <mxCell id="6fU0iMmO_q3U7_9HJFzY-81" value="" style="endArrow=none;html=1;rounded=0;" edge="1" parent="1" source="6fU0iMmO_q3U7_9HJFzY-37" target="6fU0iMmO_q3U7_9HJFzY-33">
          <mxGeometry relative="1" as="geometry">
            <mxPoint x="1195" y="655" as="sourcePoint" />
            <mxPoint x="1007" y="728" as="targetPoint" />
          </mxGeometry>
        </mxCell>
        <mxCell id="6fU0iMmO_q3U7_9HJFzY-82" value="" style="endArrow=none;html=1;rounded=0;" edge="1" parent="1" source="6fU0iMmO_q3U7_9HJFzY-36" target="6fU0iMmO_q3U7_9HJFzY-33">
          <mxGeometry relative="1" as="geometry">
            <mxPoint x="1205" y="665" as="sourcePoint" />
            <mxPoint x="1017" y="738" as="targetPoint" />
          </mxGeometry>
        </mxCell>
        <mxCell id="6fU0iMmO_q3U7_9HJFzY-83" value="" style="endArrow=none;html=1;rounded=0;" edge="1" parent="1" source="6fU0iMmO_q3U7_9HJFzY-35" target="6fU0iMmO_q3U7_9HJFzY-33">
          <mxGeometry relative="1" as="geometry">
            <mxPoint x="1215" y="675" as="sourcePoint" />
            <mxPoint x="1027" y="748" as="targetPoint" />
          </mxGeometry>
        </mxCell>
        <mxCell id="6fU0iMmO_q3U7_9HJFzY-84" value="&lt;font style=&quot;font-size: 24px;&quot;&gt;Sends&lt;/font&gt;" style="shape=rhombus;perimeter=rhombusPerimeter;whiteSpace=wrap;html=1;align=center;" vertex="1" parent="1">
          <mxGeometry x="629" y="425" width="120" height="60" as="geometry" />
        </mxCell>
        <mxCell id="6fU0iMmO_q3U7_9HJFzY-85" value="" style="endArrow=none;html=1;rounded=0;" edge="1" parent="1" source="6fU0iMmO_q3U7_9HJFzY-84" target="6fU0iMmO_q3U7_9HJFzY-33">
          <mxGeometry relative="1" as="geometry">
            <mxPoint x="801" y="535" as="sourcePoint" />
            <mxPoint x="961" y="535" as="targetPoint" />
          </mxGeometry>
        </mxCell>
        <mxCell id="6fU0iMmO_q3U7_9HJFzY-87" value="" style="endArrow=none;html=1;rounded=0;" edge="1" parent="1" source="6fU0iMmO_q3U7_9HJFzY-18" target="6fU0iMmO_q3U7_9HJFzY-84">
          <mxGeometry relative="1" as="geometry">
            <mxPoint x="778" y="490" as="sourcePoint" />
            <mxPoint x="938" y="490" as="targetPoint" />
          </mxGeometry>
        </mxCell>
        <mxCell id="6fU0iMmO_q3U7_9HJFzY-89" value="&lt;font style=&quot;font-size: 24px;&quot;&gt;1&lt;/font&gt;" style="text;strokeColor=none;fillColor=none;spacingLeft=4;spacingRight=4;overflow=hidden;rotatable=0;points=[[0,0.5],[1,0.5]];portConstraint=eastwest;fontSize=12;whiteSpace=wrap;html=1;" vertex="1" parent="1">
          <mxGeometry x="415" y="418" width="55" height="50" as="geometry" />
        </mxCell>
        <mxCell id="6fU0iMmO_q3U7_9HJFzY-90" value="&lt;font style=&quot;font-size: 24px;&quot;&gt;N&lt;/font&gt;" style="text;strokeColor=none;fillColor=none;spacingLeft=4;spacingRight=4;overflow=hidden;rotatable=0;points=[[0,0.5],[1,0.5]];portConstraint=eastwest;fontSize=12;whiteSpace=wrap;html=1;" vertex="1" parent="1">
          <mxGeometry x="966" y="418" width="40" height="30" as="geometry" />
        </mxCell>
      </root>
    </mxGraphModel>
  </diagram>
</mxfile>
